<?xml version="1.0" encoding="utf-8"?>
<!-- Generator: Adobe Illustrator 19.2.1, SVG Export Plug-In . SVG Version: 6.00 Build 0)  -->
<svg version="1.1" id="layer" xmlns="http://www.w3.org/2000/svg" xmlns:xlink="http://www.w3.org/1999/xlink" x="0px" y="0px"
	 viewBox="0 0 652 652" style="enable-background:new 0 0 652 652;" xml:space="preserve">
<style type="text/css">
	.st0{fill:#4089C8;}
</style>
<g>
	<path class="st0" d="M253.9,271.6c-18.9,0-34.6,6.9-47.1,20.8c-11.6,12.5-17,26.2-16.1,41.1c0,0.7,0.1,1.4,0.1,2
		c-0.2,0.2-0.4,0.4-0.7,0.6c-6.2,5.2-10.6,7.8-13,7.8c-5.6,0-8.2-3.7-8.1-11.2c0-3.5,2.5-19.1,7.4-47c5-27.9,7.6-46.2,7.9-55.1
		c0.5-17-6.7-25.8-21.6-26.3c-16.1-0.5-27.8,8.5-34.9,27.1c2.8-1,5.6-1.6,8.6-1.6c2.4,0,4.9,1.4,7.6,4.2c4,4.2,5.6,10.8,4.9,19.8
		c-2.1,13.9-4.1,27.7-6,41.4c-2.7,18.8-4.6,33.5-5.6,44.2c-6.2,3.7-13.4,7.5-21.7,11.5c5.6-29.7,9.5-52.7,12-69
		c-1.6-2.8-6.2-5.3-13.8-7.4c-7.6-2.2-15.6-3.3-24-3.3c-18.2,0-33.9,6.2-46.9,18.6c-13,12.4-20.3,27.7-21.9,46
		c-0.7,8.5,0.3,15.7,3.1,21.6c4,8,11.1,12.1,21.4,12.2c14.9,0.2,29.3-7.1,43.2-21.9c-1.2,5.4-2.9,11.2-5,17.4
		c-18.6,8.3-32.1,15.5-40.6,21.6c-12,8.7-18.4,17.9-19.3,27.6c-1.6,16.8,6.9,25.3,25.5,25.3c27.6,0,48.5-25.1,62.8-75.3
		c9.2-4.6,17.2-9.1,24.2-13.5c0,0.3,0,0.5,0,0.7c-0.2,5.6,1.2,10.1,4,13.5c2.9,3.5,7,5.2,12.4,5.2c11.6,0,23.3-5,34.9-15.1
		c2.2-1.9,4.3-4,6.3-6c1.3,3.2,3.1,6.2,5.2,8.9c7.1,8.9,17.5,13.3,31.3,13.3c16.5,0,30.3-5.8,41.4-17.4c11.1-11.6,17-25.4,17.7-41.4
		c0.5-11.8-2.2-21.4-8.1-28.9C275.3,275.7,266.1,271.6,253.9,271.6 M56.5,403.6c-2.8,0-4.1-1.2-3.9-3.6c0.3-4.5,8.2-10.5,23.4-18
		C68.1,396.4,61.6,403.6,56.5,403.6 M90.1,305.2c-0.5,6.8-3.7,14.4-9.6,22.9c-6.2,9.2-12.4,13.8-18.5,13.8c-6.1,0-8.9-3.2-8.6-9.6
		c0.3-6.2,3.1-13.5,8.3-21.9c6.3-9.7,12.8-14.8,19.8-15.1c3.3-0.2,5.6,0.6,6.9,2.5C89.7,299.6,90.3,302,90.1,305.2 M260.2,311.7
		c-0.3,8.3-2.9,16.3-7.6,24c-5.6,9.2-12.2,13.8-20.1,13.8c-3.5,0-6.2-1.9-8.1-5.7c-1.7-3.3-2.5-7.1-2.3-11.5
		c0.3-8.9,2.9-17.2,7.8-25c5.7-9.5,13-14.3,21.9-14.3c2.8,0,4.9,2,6.4,5.9C259.7,302.7,260.3,307,260.2,311.7"/>
	<path class="st0" d="M356.3,271.6c-18.9,0-34.6,6.9-47.1,20.8c-11.6,12.5-17,26.2-16.1,41.1c0.5,9.9,3.4,18.1,8.6,24.7
		c7.1,8.9,17.5,13.3,31.3,13.3c16.5,0,30.3-5.8,41.4-17.4c11.1-11.6,17-25.4,17.7-41.4c0.5-11.8-2.2-21.4-8.1-28.9
		C377.6,275.7,368.4,271.6,356.3,271.6 M362.5,311.7c-0.3,8.3-2.9,16.3-7.6,24c-5.6,9.2-12.2,13.8-20.1,13.8c-3.5,0-6.2-1.9-8.1-5.7
		c-1.7-3.3-2.5-7.1-2.3-11.5c0.3-8.9,2.9-17.2,7.8-25c5.7-9.5,13-14.3,21.9-14.3c2.8,0,4.9,2,6.4,5.9
		C362,302.7,362.7,307,362.5,311.7"/>
	<path class="st0" d="M612.8,283.8c-6.3-8.2-15.5-12.2-27.6-12.2c-18.9,0-34.6,6.9-47.1,20.8c-9.2,9.9-14.5,20.5-15.8,31.9l-0.3-0.4
		c-12.7,14.8-24,22.1-34.1,22.1c-6.6,0-14.2-3.5-22.9-10.4c-9.4-7.6-14.8-15.6-16.1-24c2.8-4.2,7-8.4,12.8-12.8
		c6.6-5,12.8-8,18.5-8.9c5.6-0.9,10.9-0.1,16.1,2.3c-0.5-6.6-2.9-12.2-7-16.7c-4.7-4.7-10.5-7-17.4-7c-10.1,0-19.9,4.1-29.4,12.2
		c-6.8,5.9-12.2,12.4-16.1,19.5c7.8-33.8,11.8-56.4,12-67.9c0.2-17.1-6.9-25.8-21.1-26.4c-16.1-0.5-28,8.6-35.4,27.3
		c3.1-1.4,6.1-2.1,8.9-2.1c2.3,0,4.6,1.4,7,4.2c3.6,4.3,5.1,11,4.4,20.1c-0.5,6.6-2.1,20.8-4.7,42.5c-2.3,19.5-3.6,33.9-3.9,43.3
		c-0.4,8.4,1.6,15,5.7,19.8c5.2,5.9,13.7,8.7,25.5,8.4c-0.7-6.1-0.7-18.8,0-38.3c3.8,9.2,11,18.1,21.5,26.6
		c10.5,8.5,19.7,12.8,27.5,12.8c11.1,0,22.3-5.1,33.6-15.4c5.9-5.4,11-11.3,15.2-17.6c1,8,3.8,14.8,8.2,20.4
		c7.1,8.9,17.5,13.3,31.3,13.3c16.5,0,30.3-5.8,41.4-17.4c11.1-11.6,17-25.4,17.7-41.4C621.4,300.9,618.7,291.3,612.8,283.8
		 M591.4,311.7c-0.3,8.3-2.9,16.3-7.6,24c-5.6,9.2-12.2,13.8-20.1,13.8c-3.5,0-6.2-1.9-8.1-5.7c-1.7-3.3-2.5-7.1-2.3-11.5
		c0.3-8.9,3-17.2,7.8-25c5.7-9.5,13-14.3,21.9-14.3c2.8,0,4.9,2,6.4,5.9C590.9,302.7,591.6,307,591.4,311.7"/>
</g>
</svg>
